<?xml version="1.0" encoding="utf-8"?>
<!-- Generator: Adobe Illustrator 16.0.4, SVG Export Plug-In . SVG Version: 6.00 Build 0)  -->
<!DOCTYPE svg PUBLIC "-//W3C//DTD SVG 1.1//EN" "http://www.w3.org/Graphics/SVG/1.1/DTD/svg11.dtd">
<svg version="1.1" id="Layer_1" xmlns="http://www.w3.org/2000/svg" xmlns:xlink="http://www.w3.org/1999/xlink" x="0px" y="0px"
	 width="80px" height="80px" viewBox="0 0 80 80" enable-background="new 0 0 80 80" xml:space="preserve">
<g>
	<defs>
		<circle id="SVGID_1_" cx="40" cy="40" r="39.257"/>
	</defs>
	<clipPath id="SVGID_2_">
		<use xlink:href="#SVGID_1_"  overflow="visible"/>
	</clipPath>
	<g clip-path="url(#SVGID_2_)">
		<linearGradient id="SVGID_3_" gradientUnits="userSpaceOnUse" x1="39.9995" y1="79.543" x2="39.9995" y2="0.6869">
			<stop  offset="0" style="stop-color:#ECF1F7"/>
			<stop  offset="1" style="stop-color:#7FA9C5"/>
		</linearGradient>
		<rect x="0.252" y="0.253" fill="url(#SVGID_3_)" width="79.494" height="79.494"/>
		<polygon points="79.746,41.683 79.746,79.747 0.252,79.747 0.252,69.353 30.217,54.523 35.108,63.237 		"/>
		<path d="M68.79,25.323l-0.865-1.273v-2.19l-6.166-2.497l-1.782-3.618h-5.454l-0.865,5.046l2.547-2.447h2.242l0.509,1.478
			l-2.241-1.12l0.102,2.954l1.121,0.715l-2.444,6.115l-12.843,5.196l-3.974,6.321l7.235,6.726l-1.325,2.14l3.058,6.936h2.863
			l-2.863-6.018l5.728,4.634l2.178-1.051l-5.408-4.093l-0.815-4.996l6.523-3.361l1.069,1.732l-1.834,0.713l1.834,3.568l2.294-2.396
			l4.159,5.055l2.07-1.001l-3.735-5.938l2.958-1.681l0.459-1.734l-1.835-2.293V26.241l3.007-1.324L68.79,25.323z M60.535,40.765
			l-0.764-1.274l1.25-0.968l1.247,1.479L60.535,40.765z"/>
	</g>
</g>
</svg>
